<svg width="30" height="30" viewBox="0 0 30 30" fill="none" xmlns="http://www.w3.org/2000/svg">
<g clip-path="url(#clip0_11_24)">
<path d="M8.75 30C10.1307 30 11.25 28.8807 11.25 27.5C11.25 26.1193 10.1307 25 8.75 25C7.36929 25 6.25 26.1193 6.25 27.5C6.25 28.8807 7.36929 30 8.75 30Z" fill="black"/>
<path d="M21.25 30C22.6307 30 23.75 28.8807 23.75 27.5C23.75 26.1193 22.6307 25 21.25 25C19.8693 25 18.75 26.1193 18.75 27.5C18.75 28.8807 19.8693 30 21.25 30Z" fill="black"/>
<path d="M27.4537 5.09625C27.1021 4.6743 26.662 4.33494 26.1644 4.10227C25.6669 3.8696 25.1242 3.74933 24.575 3.75H4.365L4.3125 3.31125C4.20506 2.39927 3.76673 1.55842 3.08061 0.948097C2.39449 0.337779 1.50828 0.000427242 0.59 0L0.3125 0C-0.0190206 0 -0.336963 0.131696 -0.571383 0.366117C-0.805804 0.600537 -0.9375 0.918479 -0.9375 1.25C-0.9375 1.58152 -0.805804 1.89946 -0.571383 2.13388C-0.336963 2.3683 -0.0190206 2.5 0.3125 2.5H0.59C0.896167 2.50004 1.19167 2.61245 1.42047 2.81589C1.64926 3.01934 1.79543 3.29969 1.83125 3.60375L3.55125 18.2288C3.72982 19.7497 4.4606 21.1522 5.60489 22.17C6.74917 23.1878 8.22732 23.75 9.75875 23.75H22.8125C23.144 23.75 23.462 23.6183 23.6964 23.3839C23.9308 23.1495 24.0625 22.8315 24.0625 22.5C24.0625 22.1685 23.9308 21.8505 23.6964 21.6161C23.462 21.3817 23.144 21.25 22.8125 21.25H9.75875C8.98507 21.2478 8.231 21.0064 7.59992 20.5588C6.96884 20.1113 6.49164 19.4794 6.23375 18.75H21.1337C22.5991 18.7501 24.0179 18.2353 25.1423 17.2955C26.2666 16.3558 27.025 15.0509 27.285 13.6088L28.2663 8.16625C28.3642 7.62626 28.3422 7.07133 28.2018 6.5408C28.0614 6.01026 27.806 5.5171 27.4537 5.09625ZM25.8125 7.7225L24.83 13.165C24.6739 14.0312 24.2181 14.815 23.5423 15.379C22.8666 15.943 22.0139 16.2513 21.1337 16.25H5.83625L4.66 6.25H24.575C24.7586 6.2489 24.9402 6.28828 25.1069 6.36532C25.2736 6.44236 25.4213 6.55518 25.5394 6.69576C25.6575 6.83634 25.7433 7.00121 25.7905 7.17867C25.8377 7.35613 25.8452 7.54181 25.8125 7.7225Z" fill="black"/>
</g>
<defs>
<clipPath id="clip0_11_24">
<rect width="30" height="30" fill="white"/>
</clipPath>
</defs>
</svg>
