<svg width="24" height="24" viewBox="0 0 24 24" fill="none" xmlns="http://www.w3.org/2000/svg">
<path d="M19.5 10.9C19.5001 11.1967 19.4122 11.4869 19.2474 11.7337C19.0826 11.9805 18.8483 12.1728 18.5741 12.2864C18.2999 12.4 17.9982 12.4297 17.7072 12.3718C17.4161 12.3138 17.1488 12.1709 16.939 11.961L12.354 7.37495C12.3076 7.32839 12.2524 7.29145 12.1916 7.26624C12.1309 7.24103 12.0658 7.22806 12 7.22806C11.9342 7.22806 11.8691 7.24103 11.8084 7.26624C11.7476 7.29145 11.6925 7.32839 11.646 7.37495L7.061 11.957C6.77974 12.2383 6.39822 12.3965 6.00036 12.3966C5.6025 12.3967 5.2209 12.2387 4.9395 11.9575C4.65811 11.6762 4.49997 11.2947 4.49988 10.8968C4.49978 10.4989 4.65774 10.1173 4.939 9.83595L9.525 5.24995C10.182 4.59472 11.0721 4.22677 12 4.22677C12.9279 4.22677 13.818 4.59472 14.475 5.24995L19.061 9.83595C19.2006 9.97567 19.3113 10.1416 19.3866 10.3242C19.462 10.5068 19.5005 10.7024 19.5 10.9Z" fill="#3E73F8"/>
<path d="M19.5 17.9001C19.5001 18.1968 19.4122 18.487 19.2474 18.7338C19.0826 18.9806 18.8483 19.173 18.5741 19.2865C18.2999 19.4001 17.9982 19.4298 17.7072 19.3719C17.4161 19.314 17.1488 19.171 16.939 18.9611L12 14.0181L7.061 18.9571C6.77974 19.2385 6.39822 19.3966 6.00036 19.3967C5.6025 19.3968 5.2209 19.2388 4.9395 18.9576C4.65811 18.6763 4.49997 18.2948 4.49988 17.8969C4.49978 17.4991 4.65774 17.1175 4.939 16.8361L10.939 10.8361C11.0783 10.6967 11.2437 10.5861 11.4258 10.5107C11.6078 10.4352 11.8029 10.3964 12 10.3964C12.1971 10.3964 12.3922 10.4352 12.5743 10.5107C12.7563 10.5861 12.9217 10.6967 13.061 10.8361L19.061 16.8361C19.2006 16.9758 19.3113 17.1417 19.3866 17.3243C19.462 17.5069 19.5005 17.7026 19.5 17.9001Z" fill="#3E73F8"/>
</svg>
