<svg width="154" height="37" viewBox="0 0 154 37" fill="none" xmlns="http://www.w3.org/2000/svg">
<g clip-path="url(#clip0_10_19)">
<path d="M52.4222 8.064H15.5519C14.1734 8.064 13.0559 9.13852 13.0559 10.464V10.5438C13.0559 11.8693 14.1734 12.9438 15.5519 12.9438H52.4222C53.8007 12.9438 54.9182 11.8693 54.9182 10.5438V10.464C54.9182 9.13852 53.8007 8.064 52.4222 8.064Z" fill="black"/>
<path d="M49.8942 16.128H18.048C16.8816 16.128 15.936 17.2025 15.936 18.528V18.6078C15.936 19.9333 16.8816 21.0078 18.048 21.0078H49.8942C51.0606 21.0078 52.0062 19.9333 52.0062 18.6078V18.528C52.0062 17.2025 51.0606 16.128 49.8942 16.128Z" fill="black"/>
<path d="M46.7648 24.096H21.216C20.2617 24.096 19.488 25.1705 19.488 26.496V26.5758C19.488 27.9013 20.2617 28.9758 21.216 28.9758H46.7648C47.7192 28.9758 48.4928 27.9013 48.4928 26.5758V26.496C48.4928 25.1705 47.7192 24.096 46.7648 24.096Z" fill="black"/>
<path d="M22.4316 0H1.44C0.64471 0 0 1.07452 0 2.4V2.47982C0 3.80531 0.64471 4.87982 1.44 4.87982H22.4316C23.2268 4.87982 23.8716 3.80531 23.8716 2.47982V2.4C23.8716 1.07452 23.2268 0 22.4316 0Z" fill="#03543E"/>
<path d="M29.472 36.768C31.0095 36.768 32.256 35.5216 32.256 33.984C32.256 32.4464 31.0095 31.2 29.472 31.2C27.9344 31.2 26.688 32.4464 26.688 33.984C26.688 35.5216 27.9344 36.768 29.472 36.768Z" fill="black"/>
<path d="M38.1119 36.768C39.6494 36.768 40.8959 35.5216 40.8959 33.984C40.8959 32.4464 39.6494 31.2 38.1119 31.2C36.5743 31.2 35.3279 32.4464 35.3279 33.984C35.3279 35.5216 36.5743 36.768 38.1119 36.768Z" fill="black"/>
<path d="M82.272 28.32L84.192 17.664H75.936L75.264 20.928H79.68C79.296 23.424 76.8 25.44 74.112 25.44C70.848 25.44 69.696 23.328 69.696 19.872C69.696 14.688 72.576 11.232 76.608 11.232C78.816 11.232 80.544 12.288 80.544 14.304V14.592H84.672C84.672 14.4 84.672 14.112 84.672 13.92C84.672 10.272 81.696 7.776 77.184 7.776C69.792 7.776 65.376 13.728 65.376 20.16C65.376 24.864 67.968 28.992 72.672 28.992C75.456 28.992 77.856 28.032 79.104 26.304L78.816 28.32H82.272Z" fill="black"/>
<path d="M91.5839 25.44C89.5679 25.44 88.7039 24.672 88.7039 22.176C88.7039 18.624 90.0479 16.512 93.1199 16.512C95.0399 16.512 95.9999 17.088 95.9999 19.776C95.9999 23.232 94.5599 25.44 91.5839 25.44ZM91.0079 28.704C96.2879 28.704 99.9359 24.864 99.9359 19.488C99.9359 15.648 97.7279 13.248 93.6959 13.248C88.3199 13.248 84.6719 16.992 84.6719 22.368C84.6719 26.112 86.8799 28.704 91.0079 28.704Z" fill="black"/>
<path d="M117.504 14.304C117.504 14.016 117.504 13.632 117.504 13.248C117.504 9.984 115.104 7.776 110.688 7.776C105.216 7.776 102.24 10.848 102.24 14.688C102.24 18.048 104.544 19.104 109.92 20.256C112.032 20.736 112.608 21.504 112.608 22.464C112.608 24.384 110.976 25.632 108.096 25.632C105.888 25.632 104.352 24.864 104.352 23.04C104.352 22.752 104.352 22.56 104.352 22.368H100.416C100.32 22.752 100.32 23.136 100.32 23.52C100.32 27.168 102.816 28.992 108 28.992C112.512 28.992 116.736 26.496 116.736 21.792C116.736 19.584 115.68 18.528 114.336 17.952C112.896 17.28 111.168 16.8 108.768 16.224C106.944 15.744 106.08 14.976 106.08 14.016C106.08 12.288 107.52 11.328 110.112 11.328C112.416 11.328 113.568 11.808 113.568 13.824C113.568 14.016 113.568 14.112 113.568 14.304H117.504Z" fill="black"/>
<path d="M131.52 21.984C131.712 20.928 131.808 19.968 131.808 19.104C131.808 15.168 129.888 13.248 126.144 13.248C120.96 13.248 117.504 16.896 117.504 22.656C117.504 26.592 119.616 28.704 123.744 28.704C126.816 28.704 129.6 26.976 131.04 24H127.008C126.528 24.96 125.28 25.632 124.032 25.632C122.4 25.632 121.344 24.768 121.344 22.656V21.984H131.52ZM121.824 19.488C122.4 17.664 123.552 16.32 125.568 16.32C126.816 16.32 128.064 16.704 128.064 18.624C128.064 18.912 128.064 19.2 127.968 19.488H121.824Z" fill="black"/>
<path d="M135.648 28.32L139.2 8.256H135.264L131.808 28.32H135.648Z" fill="black"/>
<path d="M141.216 28.32L144.672 8.256H140.832L137.28 28.32H141.216Z" fill="black"/>
<path d="M146.688 28.32L148.032 20.64C148.512 18.24 149.856 17.088 152.256 17.088C152.64 17.088 152.928 17.088 153.312 17.184L153.984 13.248H153.504C151.872 13.248 150.336 13.344 148.704 15.36L149.088 13.632H145.44L142.848 28.32H146.688Z" fill="black"/>
</g>
<defs>
<clipPath id="clip0_10_19">
<rect width="153.984" height="36.768" fill="white"/>
</clipPath>
</defs>
</svg>
