<svg width="154" height="39" viewBox="0 0 154 39" fill="none" xmlns="http://www.w3.org/2000/svg">
<g clip-path="url(#clip0_180_2)">
<path d="M67.125 34.2997L68.3797 34.1749C68.4556 34.5944 68.6063 34.9016 68.8367 35.0984C69.0661 35.2952 69.3762 35.3931 69.7669 35.3931C70.1788 35.3931 70.4908 35.3058 70.6991 35.131C70.9084 34.9563 71.014 34.7518 71.014 34.5176C71.014 34.3669 70.9698 34.2382 70.8824 34.1317C70.7951 34.0261 70.6405 33.9339 70.4216 33.8571C70.2719 33.8034 69.9311 33.7122 69.3973 33.5787C68.7109 33.4069 68.229 33.1957 67.9516 32.9451C67.5618 32.5938 67.3669 32.1656 67.3669 31.6597C67.3669 31.3352 67.4591 31.0299 67.6415 30.7467C67.8258 30.4635 68.0898 30.2485 68.4344 30.0997C68.78 29.9518 69.1948 29.8779 69.6844 29.8779C70.4812 29.8779 71.0812 30.0546 71.4834 30.4088C71.8866 30.763 72.0968 31.2344 72.118 31.8267L70.8277 31.8709C70.773 31.5416 70.6559 31.3064 70.4764 31.1624C70.2968 31.0184 70.0271 30.9454 69.668 30.9454C69.2975 30.9454 69.0066 31.0222 68.7973 31.1768C68.662 31.2766 68.5948 31.4082 68.5948 31.5742C68.5948 31.725 68.6581 31.8546 68.7858 31.9611C68.9471 32.0984 69.3407 32.2415 69.9647 32.3893C70.5887 32.5362 71.0504 32.6907 71.348 32.8482C71.6476 33.0066 71.8818 33.2216 72.0508 33.4962C72.2197 33.7707 72.3042 34.1086 72.3042 34.5099C72.3042 34.8747 72.2034 35.2174 71.9999 35.5362C71.7964 35.8549 71.5103 36.092 71.1397 36.2466C70.7692 36.4021 70.3064 36.4798 69.7535 36.4798C68.948 36.4798 68.3298 36.2946 67.8988 35.9221C67.4668 35.5515 67.2104 35.0101 67.126 34.2997H67.125ZM76.0568 34.9045L77.276 35.109C77.1205 35.5554 76.8728 35.8952 76.5359 36.1294C76.198 36.3627 75.7756 36.4798 75.2696 36.4798C74.468 36.4798 73.8728 36.2178 73.4888 35.6926C73.1845 35.2712 73.0319 34.7403 73.0319 34.099C73.0319 33.3339 73.2325 32.7339 73.6309 32.3C74.0293 31.8661 74.5352 31.6491 75.1458 31.6491C75.8312 31.6491 76.3727 31.8757 76.7692 32.3298C77.1656 32.7829 77.3548 33.4789 77.3375 34.4158H74.2856C74.2943 34.7778 74.3922 35.059 74.5804 35.2606C74.7666 35.4622 75.0018 35.563 75.2802 35.563C75.4712 35.563 75.6316 35.5112 75.7602 35.4075C75.8908 35.3038 75.9887 35.1358 76.0549 34.9045H76.0568ZM76.1279 33.668C76.1192 33.3138 76.029 33.044 75.8552 32.8597C75.6815 32.6744 75.4712 32.5822 75.2216 32.5822C74.9567 32.5822 74.7368 32.6802 74.564 32.8741C74.3903 33.068 74.3058 33.3339 74.3087 33.667H76.1279V33.668ZM78.3359 36.3637V29.9941H79.5541V36.3637H78.3359ZM80.8079 36.3637V29.9941H82.0261V36.3637H80.8079ZM83.2799 31.124V29.9941H84.4981V31.124H83.2799ZM83.2799 36.3637V31.747H84.4981V36.3637H83.2799ZM89.9509 36.3637H88.7317V34.0107C88.7317 33.5125 88.7048 33.1909 88.653 33.045C88.5992 32.8981 88.5148 32.7858 88.3967 32.7042C88.2786 32.6226 88.1356 32.5822 87.9704 32.5822C87.7573 32.5822 87.5653 32.6398 87.3964 32.756C87.2255 32.8712 87.1103 33.0258 87.0479 33.2158C86.9845 33.4078 86.9528 33.7602 86.9528 34.2757V36.3637H85.7346V31.747H86.8645V32.4248C87.2696 31.9074 87.7784 31.6491 88.3938 31.6491C88.6636 31.6491 88.9112 31.6981 89.1349 31.7941C89.3605 31.892 89.5295 32.0149 89.6437 32.1646C89.7589 32.3154 89.8396 32.4863 89.8837 32.6773C89.9298 32.8683 89.9519 33.141 89.9519 33.4971V36.3627L89.9509 36.3637ZM91.0703 36.6574L92.4671 36.8264C92.4911 36.9906 92.5439 37.1038 92.6274 37.1662C92.7445 37.2536 92.9269 37.2978 93.1756 37.2978C93.4943 37.2978 93.7333 37.2507 93.8936 37.1538C94.0002 37.0894 94.0818 36.9877 94.1375 36.8456C94.1749 36.7448 94.1941 36.5566 94.1941 36.285L94.1999 35.6101C93.8322 36.1131 93.3695 36.3637 92.8117 36.3637C92.1925 36.3637 91.7 36.1016 91.3381 35.5774C91.054 35.1637 90.9109 34.6472 90.9109 34.0328C90.9109 33.259 91.0972 32.6686 91.4696 32.2606C91.8421 31.8526 92.3058 31.6482 92.8607 31.6482C93.4309 31.6482 93.9032 31.8987 94.2738 32.3998V31.7461H95.4124V35.8856C95.4124 36.4299 95.3682 36.837 95.277 37.1058C95.1877 37.3755 95.062 37.5858 94.8988 37.7403C94.7365 37.893 94.5205 38.0149 94.2498 38.1013C93.9781 38.1887 93.6364 38.2318 93.2226 38.2318C92.4402 38.2318 91.8853 38.0965 91.557 37.8286C91.2296 37.5589 91.0664 37.2191 91.0664 36.8053C91.0664 36.765 91.0684 36.715 91.0712 36.6574H91.0703ZM92.1647 33.9618C92.1647 34.4504 92.2597 34.8085 92.4479 35.035C92.638 35.2616 92.8722 35.3758 93.1496 35.3758C93.4463 35.3758 93.6978 35.2587 93.9032 35.0254C94.1096 34.7931 94.2114 34.4485 94.2114 33.9925C94.2114 33.5154 94.1135 33.1602 93.9167 32.9298C93.7208 32.6984 93.4722 32.5832 93.1708 32.5832C92.8789 32.5832 92.638 32.6974 92.4488 32.925C92.2607 33.1515 92.1656 33.4971 92.1656 33.9627L92.1647 33.9618ZM99.1007 36.3637V29.9941H101.163C101.944 29.9941 102.453 30.0248 102.69 30.0891C103.055 30.1851 103.36 30.3934 103.606 30.7131C103.852 31.0338 103.976 31.4475 103.976 31.9544C103.976 32.3461 103.905 32.6734 103.763 32.9403C103.621 33.2072 103.442 33.4165 103.224 33.5691C103.006 33.7198 102.783 33.8216 102.559 33.8706C102.251 33.931 101.809 33.9627 101.227 33.9627H100.391V36.3646H99.1007V36.3637ZM100.391 31.0702V32.8856H101.093C101.599 32.8856 101.935 32.851 102.105 32.7848C102.276 32.7176 102.41 32.6139 102.506 32.4699C102.602 32.3278 102.652 32.1627 102.652 31.9736C102.652 31.7403 102.584 31.5493 102.448 31.3986C102.312 31.2478 102.141 31.1528 101.933 31.1144C101.78 31.0856 101.473 31.0712 101.01 31.0712H100.392L100.391 31.0702ZM104.742 33.9982C104.742 33.5922 104.841 33.1986 105.041 32.8194C105.242 32.4382 105.525 32.1493 105.891 31.9486C106.257 31.749 106.665 31.6482 107.117 31.6482C107.816 31.6482 108.386 31.8747 108.832 32.3288C109.279 32.7838 109.5 33.356 109.5 34.0501C109.5 34.7499 109.275 35.3298 108.825 35.7896C108.375 36.2494 107.809 36.4789 107.125 36.4789C106.703 36.4789 106.3 36.3829 105.916 36.1909C105.533 35.9998 105.241 35.7195 105.041 35.349C104.841 34.9794 104.742 34.5291 104.742 33.9982ZM105.995 34.0635C105.995 34.5224 106.104 34.8728 106.321 35.1166C106.539 35.3614 106.806 35.4824 107.124 35.4824C107.441 35.4824 107.708 35.3605 107.923 35.1166C108.138 34.8728 108.247 34.5195 108.247 34.0549C108.247 33.6027 108.138 33.2542 107.923 33.0114C107.708 32.7666 107.441 32.6456 107.124 32.6456C106.806 32.6456 106.539 32.7675 106.321 33.0114C106.104 33.2542 105.995 33.6056 105.995 34.0635ZM111.626 36.3637H110.408V31.747H111.537V32.4027C111.731 32.0926 111.907 31.8891 112.063 31.7931C112.218 31.6971 112.395 31.6491 112.592 31.6491C112.871 31.6491 113.139 31.7259 113.397 31.8786L113.019 32.9432C112.812 32.8098 112.621 32.7426 112.445 32.7426C112.273 32.7426 112.127 32.7906 112.009 32.8837C111.891 32.9787 111.797 33.1477 111.729 33.3934C111.66 33.6392 111.626 34.1557 111.626 34.94V36.3637ZM116.031 31.747V32.7166H115.195V34.5867C115.195 34.9669 115.202 35.1877 115.218 35.2501C115.234 35.3125 115.27 35.3643 115.329 35.4056C115.385 35.4459 115.453 35.4661 115.535 35.4661C115.649 35.4661 115.812 35.4277 116.027 35.349L116.13 36.2974C115.847 36.4194 115.526 36.4798 115.168 36.4798C114.949 36.4798 114.752 36.4424 114.575 36.3685C114.398 36.2946 114.27 36.1976 114.188 36.0805C114.105 35.9614 114.049 35.803 114.016 35.6014C113.991 35.4594 113.978 35.1714 113.978 34.7365V32.7157H113.417V31.7461H113.978V30.8293L115.197 30.1093V31.7461H116.033L116.031 31.747ZM117.793 33.1707L116.69 32.9749C116.815 32.5237 117.03 32.1906 117.333 31.9736C117.637 31.7566 118.089 31.6491 118.689 31.6491C119.233 31.6491 119.639 31.7134 119.906 31.8421C120.171 31.9707 120.359 32.1339 120.467 32.3326C120.576 32.5314 120.631 32.8942 120.631 33.4261L120.612 34.8498C120.612 35.2549 120.632 35.5534 120.67 35.7464C120.708 35.9394 120.781 36.1448 120.888 36.3646H119.678C119.647 36.285 119.607 36.1659 119.561 36.0085C119.542 35.9355 119.528 35.8885 119.518 35.8664C119.311 36.0709 119.088 36.2235 118.851 36.3262C118.614 36.429 118.361 36.4808 118.093 36.4808C117.62 36.4808 117.247 36.3522 116.974 36.0939C116.701 35.8376 116.565 35.5112 116.565 35.1166C116.565 34.8574 116.627 34.6242 116.752 34.4197C116.877 34.2171 117.05 34.0597 117.275 33.9512C117.499 33.8427 117.823 33.7486 118.245 33.667C118.814 33.5605 119.211 33.4597 119.43 33.3675V33.2446C119.43 33.0075 119.372 32.8386 119.256 32.7358C119.139 32.635 118.919 32.5851 118.597 32.5851C118.379 32.5851 118.21 32.6283 118.089 32.7157C117.966 32.8011 117.868 32.9538 117.792 33.1726L117.793 33.1707ZM119.43 34.1586C119.274 34.2104 119.026 34.2728 118.687 34.3448C118.349 34.4178 118.126 34.4888 118.022 34.557C117.864 34.6712 117.783 34.8133 117.783 34.987C117.783 35.1589 117.848 35.3058 117.974 35.4306C118.102 35.5554 118.263 35.6168 118.461 35.6168C118.68 35.6168 118.891 35.5438 119.091 35.3998C119.238 35.2885 119.336 35.155 119.382 34.9947C119.412 34.891 119.43 34.6923 119.43 34.4005V34.1576V34.1586ZM121.833 36.3646V29.995H123.052V36.3646H121.833Z" fill="#196E53"/>
<path d="M52.4224 8.04004H15.5526C14.1741 8.04004 13.0566 9.11428 13.0566 10.44V10.5197C13.0566 11.8455 14.1741 12.9197 15.5526 12.9197H52.4224C53.801 12.9197 54.9184 11.8455 54.9184 10.5197V10.44C54.9184 9.11428 53.801 8.04004 52.4224 8.04004Z" fill="black"/>
<path d="M49.8936 16.104H18.0475C16.8811 16.104 15.9355 17.1782 15.9355 18.504V18.5837C15.9355 19.9094 16.8811 20.9837 18.0475 20.9837H49.8936C51.06 20.9837 52.0056 19.9094 52.0056 18.5837V18.504C52.0056 17.1792 51.06 16.104 49.8936 16.104Z" fill="black"/>
<path d="M46.7648 24.0723H21.2163C20.262 24.0723 19.4883 25.1465 19.4883 26.4723V26.5519C19.4883 27.8777 20.262 28.9519 21.2163 28.9519H46.7648C47.719 28.9519 48.4928 27.8777 48.4928 26.5519V26.4723C48.4928 25.1465 47.719 24.0723 46.7648 24.0723Z" fill="black"/>
<path d="M22.4314 -0.0239258H1.44C0.64512 -0.0239258 0 1.05031 0 2.37607V2.45575C0 3.78151 0.64512 4.85575 1.44 4.85575H22.4314C23.2262 4.85575 23.8714 3.78151 23.8714 2.45575V2.37607C23.8714 1.05031 23.2262 -0.0239258 22.4314 -0.0239258Z" fill="#196E53"/>
<path d="M29.4715 36.7443C31.0094 36.7443 32.2555 35.4982 32.2555 33.9603C32.2555 32.4223 31.0094 31.1763 29.4715 31.1763C27.9336 31.1763 26.6875 32.4223 26.6875 33.9603C26.6875 35.4982 27.9336 36.7443 29.4715 36.7443Z" fill="black"/>
<path d="M38.1102 36.7443C39.6481 36.7443 40.8942 35.4982 40.8942 33.9603C40.8942 32.4223 39.6481 31.1763 38.1102 31.1763C36.5723 31.1763 35.3262 32.4223 35.3262 33.9603C35.3262 35.4982 36.5723 36.7443 38.1102 36.7443Z" fill="black"/>
<path d="M82.271 25.4161L84.191 14.7601H75.935L75.263 18.0241H79.679C79.295 20.5201 76.799 22.5361 74.111 22.5361C70.847 22.5361 69.695 20.4241 69.695 16.9681C69.695 11.7841 72.575 8.32807 76.607 8.32807C78.815 8.32807 80.543 9.38407 80.543 11.4001V11.6881H84.671C84.671 11.4961 84.671 11.2081 84.671 11.0161C84.671 7.36807 81.695 4.87207 77.183 4.87207C69.791 4.87207 65.375 10.8241 65.375 17.2561C65.375 21.9601 67.967 26.0881 72.671 26.0881C75.455 26.0881 77.855 25.1281 79.103 23.4001L78.815 25.4161H82.271Z" fill="black"/>
<path d="M91.5839 22.5362C89.5679 22.5362 88.7039 21.7682 88.7039 19.2722C88.7039 15.7202 90.0479 13.6082 93.1199 13.6082C95.0399 13.6082 95.9999 14.1842 95.9999 16.8722C95.9999 20.3282 94.5599 22.5362 91.5839 22.5362ZM91.0079 25.8002C96.2879 25.8002 99.9359 21.9602 99.9359 16.5842C99.9359 12.7442 97.7279 10.3442 93.6959 10.3442C88.3199 10.3442 84.6719 14.0882 84.6719 19.4642C84.6719 23.2082 86.8799 25.8002 91.0079 25.8002Z" fill="black"/>
<path d="M117.502 11.4001C117.502 11.1121 117.502 10.7281 117.502 10.3441C117.502 7.08007 115.102 4.87207 110.686 4.87207C105.214 4.87207 102.238 7.94407 102.238 11.7841C102.238 15.1441 104.542 16.2001 109.918 17.3521C112.03 17.8321 112.606 18.6001 112.606 19.5601C112.606 21.4801 110.974 22.7281 108.094 22.7281C105.886 22.7281 104.35 21.9601 104.35 20.1361C104.35 19.8481 104.35 19.6561 104.35 19.4641H100.414C100.318 19.8481 100.318 20.2321 100.318 20.6161C100.318 24.2641 102.814 26.0881 107.998 26.0881C112.51 26.0881 116.734 23.5921 116.734 18.8881C116.734 16.6801 115.678 15.6241 114.334 15.0481C112.894 14.3761 111.166 13.8961 108.766 13.3201C106.942 12.8401 106.078 12.0721 106.078 11.1121C106.078 9.38407 107.518 8.42407 110.11 8.42407C112.414 8.42407 113.566 8.90407 113.566 10.9201C113.566 11.1121 113.566 11.2081 113.566 11.4001H117.502Z" fill="black"/>
<path d="M131.518 19.0802C131.71 18.0242 131.806 17.0642 131.806 16.2002C131.806 12.2642 129.886 10.3442 126.142 10.3442C120.958 10.3442 117.502 13.9922 117.502 19.7522C117.502 23.6882 119.614 25.8002 123.742 25.8002C126.814 25.8002 129.598 24.0722 131.038 21.0962H127.006C126.526 22.0562 125.278 22.7282 124.03 22.7282C122.398 22.7282 121.342 21.8642 121.342 19.7522V19.0802H131.518ZM121.822 16.5842C122.398 14.7602 123.55 13.4162 125.566 13.4162C126.814 13.4162 128.062 13.8002 128.062 15.7202C128.062 16.0082 128.062 16.2962 127.966 16.5842H121.822Z" fill="black"/>
<path d="M135.647 25.4161L139.199 5.35205H135.263L131.807 25.4161H135.647Z" fill="black"/>
<path d="M141.213 25.4161L144.669 5.35205H140.829L137.277 25.4161H141.213Z" fill="black"/>
<path d="M146.686 25.4162L148.03 17.7362C148.51 15.3362 149.854 14.1842 152.254 14.1842C152.638 14.1842 152.926 14.1842 153.31 14.2802L153.982 10.3442H153.502C151.87 10.3442 150.334 10.4402 148.702 12.4562L149.086 10.7282H145.438L142.846 25.4162H146.686Z" fill="black"/>
</g>
<defs>
<clipPath id="clip0_180_2">
<rect width="153.984" height="38.208" fill="white"/>
</clipPath>
</defs>
</svg>
